# xmcd
# 
# Track frame offsets:
#     150
#     17531
#     36718
#     56267
#     74775
#     93492
#     115128
#     137457
#     156476
#     179763
# 
# Disc length: 2697
# 
# Revision: 2
# Processed by: cddbd v1.5.2PL0 Copyright (c) Steve Scherf et al.
# Submitted via: fre:ac v1.0.31
# 
DISCID=910a870a
DTITLE=Boney James - Contact
DYEAR=2011
DGENRE=Jazz
TTITLE0=Contact
TTITLE1=Close To You (feat. Donell Jones)
TTITLE2=Spin
TTITLE3=When I Had The Chance (feat. LeToya Luckett)
TTITLE4=Cry
TTITLE5=That Look On Your Face (feat. Mario)
TTITLE6=Deep Time
TTITLE7=I'm Waiting (feat. Heather Headley)
TTITLE8=There And Back
TTITLE9=Everything Matters
EXTD=YEAR: 2011
EXTT0=
EXTT1=
EXTT2=
EXTT3=
EXTT4=
EXTT5=
EXTT6=
EXTT7=
EXTT8=
EXTT9=
PLAYORDER=
